<svg width="300" height="300" viewBox="0 0 300 300" fill="none" xmlns="http://www.w3.org/2000/svg">
<g clip-path="url(#clip0_951_266)">
<circle cx="150" cy="150" r="150" fill="#F2F4F6"/>
<path d="M149.852 271.586C114.64 271.586 87.96 261.477 69.8115 241.257C51.6631 220.938 42.5889 190.954 42.5889 151.304C42.5889 111.752 51.6138 82.0142 69.6636 62.0903C87.812 42.1665 114.542 32.2046 149.852 32.2046C185.261 32.2046 212.04 42.1665 230.188 62.0903C248.337 82.0142 257.411 111.752 257.411 151.304C257.411 190.954 248.288 220.938 230.041 241.257C211.892 261.477 185.163 271.586 149.852 271.586ZM155.03 245.251L234.923 148.493C240.052 142.279 241.926 136.164 240.545 130.147C239.263 124.032 234.972 119.544 227.673 116.684L112.865 70.6714C104.875 67.4165 97.626 66.8247 91.1162 68.896C84.7051 70.9673 80.3159 75.1099 77.9487 81.3237C75.6802 87.5376 75.8281 95.4775 78.3926 105.144L119.227 235.783C120.805 240.912 123.714 245.054 127.956 248.21C132.197 251.367 136.833 252.748 141.863 252.353C146.992 251.958 151.381 249.591 155.03 245.251Z" fill="#04090F"/>
</g>
<defs>
<clipPath id="clip0_951_266">
<rect width="300" height="300" fill="white"/>
</clipPath>
</defs>
</svg>
